<svg xmlns="http://www.w3.org/2000/svg" viewBox="0 0 32 32"><defs><style>.cls-1{fill:#c3a4a9;}.cls-2{fill:#fff;}</style></defs><g id="Capa_2" data-name="Capa 2"><g id="Capa_1-2" data-name="Capa 1"><rect class="cls-1" width="32" height="32"/><path class="cls-2" d="M17.06,20.34,22,25.4a12.45,12.45,0,0,1-4.17,3.11,9.24,9.24,0,0,1-4.57.75,13.37,13.37,0,0,1-5.3-1.83A16,16,0,0,1,2.7,23.18,10.53,10.53,0,0,1,.82,17.39,14.05,14.05,0,0,1,2.88,9.83q3-5.42,7.49-6.72t9.75,1.61A12.57,12.57,0,0,1,25.67,10,11.19,11.19,0,0,1,26.34,17l-6.68-2a5.74,5.74,0,0,0,.15-1.82,4.42,4.42,0,0,0-.72-2,4.53,4.53,0,0,0-1.6-1.43A4.53,4.53,0,0,0,13,9.74a8.9,8.9,0,0,0-3.3,3.79C8.32,15.94,7.76,17.8,8,19.1a4.3,4.3,0,0,0,2.35,3.06,4.26,4.26,0,0,0,3.52.54A7.71,7.71,0,0,0,17.06,20.34Z"/><path class="cls-2" d="M23.79,22.36h7.4V29.3h-7.4Z"/></g></g></svg>