<svg xmlns="http://www.w3.org/2000/svg" viewBox="0 0 874.82 714.3"><defs><style>.cls-1{fill:#c3a4a9;}.cls-2{fill:#fff;}</style></defs><g id="Capa_2" data-name="Capa 2"><g id="Capa_1-2" data-name="Capa 1"><rect class="cls-1" width="874.82" height="714.3"/><path class="cls-2" d="M152.82,166.22,186,200.42q-13.33,14.57-28.22,21a62.86,62.86,0,0,1-30.89,5.09q-16-1.38-35.79-12.36-24-13.33-35.39-28.75T43.09,146.28Q41.77,122.57,57,95.13q20.28-36.55,50.62-45.42T173.54,60.6Q201.38,76,211.08,96.14t4.49,47.71L170.4,130.49q1.62-7.91,1-12.3A30,30,0,0,0,166.55,105a30.66,30.66,0,0,0-10.8-9.67q-15.48-8.6-30.63-.71-11.36,5.79-22.33,25.56-13.58,24.51-11.18,37.72t15.87,20.68q13.06,7.25,23.82,3.62T152.82,166.22Z"/><path class="cls-2" d="M285.49,286.86l-51.7-28.67-20.68,20.34-46.49-25.79L303.74,136.09l49.67,27.54L327.06,341.72l-47.69-26.45Zm8.23-37.11,13.11-62L261.35,231.8Z"/><path class="cls-2" d="M423.07,202.26l75.69,42Q523.5,258,529.28,276.55T523,316.86q-12.37,22.31-32.76,27.44t-47.94-10.16L417.4,320.32,387.07,375l-45.74-25.36ZM434,290.46l11.16,6.19q13.17,7.31,21,5.68A16.89,16.89,0,0,0,478,293.58a18.74,18.74,0,0,0,1.89-14.33q-2-7.39-14.71-14.47l-13-7.19Z"/><path class="cls-2" d="M576.82,448.42l-51.7-28.67-20.68,20.34-46.5-25.78L595.07,297.65l49.67,27.55L618.39,503.29,570.7,476.84Zm8.22-37.1,13.12-62-45.48,44.05Z"/><path class="cls-2" d="M283.21,425.31l-57.07,15.43-.67,29L174.14,483.6l17.19-179.2,54.83-14.82L351.25,435.74,298.61,450ZM263.28,393l-33.76-53.63-2,63.29Z"/><path class="cls-2" d="M185.19,588l45.63,13.79q-4.59,19.2-14.48,32.07a62.81,62.81,0,0,1-24.54,19.43q-14.66,6.56-37.31,6.55-27.47,0-44.88-8T79.55,623.74q-12.66-20.1-12.65-51.46,0-41.82,22.24-64.28t62.94-22.45q31.85,0,50.06,12.87T229.21,538l-46,10.23q-2.41-7.7-5.06-11.26a29.9,29.9,0,0,0-10.69-9.2,30.74,30.74,0,0,0-14.13-3.22q-17.72,0-27.13,14.24-7.14,10.56-7.13,33.18,0,28,8.51,38.41t23.91,10.39q14.94,0,22.58-8.39T185.19,588Z"/><path class="cls-2" d="M359.71,629.12H300.6l-8.22,27.82H239.21l63.34-168.52h56.8l63.32,168.52H368.15Zm-10.8-36.44-18.6-60.58-18.4,60.58Z"/><path class="cls-2" d="M439,488.42h86.56q28.28,0,42.36,13.45T582,540.15q0,25.51-15.35,39.89t-46.84,14.37H491.3v62.53H439Zm52.3,71.84h12.76q15.06,0,21.15-5.23a16.85,16.85,0,0,0,6.09-13.39A18.73,18.73,0,0,0,526,528.19q-5.29-5.52-19.89-5.51H491.3Z"/><path class="cls-2" d="M692.84,629.12H633.72l-8.21,27.82H572.34l63.34-168.52h56.8L755.8,656.94H701.27ZM682,592.68l-18.6-60.58L645,592.68Z"/><path class="cls-2" d="M769.37,610h50v46.9h-50Z"/></g></g></svg>